<?xml version="1.0" encoding="UTF-8" standalone="no"?><!-- Generator: Gravit.io --><svg xmlns="http://www.w3.org/2000/svg" xmlns:xlink="http://www.w3.org/1999/xlink" style="isolation:isolate" viewBox="559 197.941 129 57.266" width="129pt" height="57.266pt"><path d="M 566.009 197.941 L 680.991 197.941 C 684.859 197.941 688 201.082 688 204.95 L 688 248.198 C 688 252.066 684.859 255.207 680.991 255.207 L 566.009 255.207 C 562.141 255.207 559 252.066 559 248.198 L 559 204.95 C 559 201.082 562.141 197.941 566.009 197.941 Z" style="stroke:none;fill:#B7CE4E;stroke-miterlimit:10;"/><path d="M 577.401 206.574 L 605.001 206.574 C 608.423 206.574 611.201 209.352 611.201 212.774 L 611.201 240.374 C 611.201 243.796 608.423 246.574 605.001 246.574 L 577.401 246.574 C 573.979 246.574 571.201 243.796 571.201 240.374 L 571.201 212.774 C 571.201 209.352 573.979 206.574 577.401 206.574 Z" style="stroke:none;fill:#FFFFFF;stroke-miterlimit:10;"/><g><line x1="579.414" y1="212.83" x2="593.96" y2="212.83" vector-effect="non-scaling-stroke" stroke-width="3" stroke="rgb(183,206,78)" stroke-linejoin="miter" stroke-linecap="square" stroke-miterlimit="3"/><line x1="585.403" y1="240.318" x2="595.243" y2="240.318" vector-effect="non-scaling-stroke" stroke-width="3" stroke="rgb(183,206,78)" stroke-linejoin="miter" stroke-linecap="square" stroke-miterlimit="3"/><line x1="579.414" y1="218.82" x2="579.414" y2="240.318" vector-effect="non-scaling-stroke" stroke-width="3" stroke="rgb(183,206,78)" stroke-linejoin="miter" stroke-linecap="square" stroke-miterlimit="3"/><line x1="593.96" y1="212.83" x2="593.96" y2="222.242" vector-effect="non-scaling-stroke" stroke-width="3" stroke="rgb(183,206,78)" stroke-linejoin="miter" stroke-linecap="square" stroke-miterlimit="3"/><path d=" M 594.852 228.252 C 595.98 227.876 597.228 227.82 598.459 228.162 C 601.747 229.075 603.675 232.487 602.762 235.775 C 602.015 238.464 599.598 240.243 596.944 240.304" fill="none" vector-effect="non-scaling-stroke" stroke-width="3" stroke="rgb(183,206,78)" stroke-linejoin="miter" stroke-linecap="square" stroke-miterlimit="3"/><circle vector-effect="non-scaling-stroke" cx="584.9752593866617" cy="218.39177766382494" r="1.2834770193171607" fill="rgb(183,206,78)"/><rect x="590.537" y="226.52" width="5.134" height="3.957" transform="matrix(1,0,0,1,0,0)" fill="rgb(255,255,255)"/><rect x="591.393" y="229.22" width="5.134" height="2.786" transform="matrix(1,0,0,1,0,0)" fill="rgb(255,255,255)"/><line x1="593.96" y1="227.965" x2="595.671" y2="227.965" vector-effect="non-scaling-stroke" stroke-width="3" stroke="rgb(183,206,78)" stroke-linejoin="miter" stroke-linecap="square" stroke-miterlimit="3"/></g><text transform="matrix(1,0,0,1,614.201,235.119)" style="font-family:'Roboto';font-weight:700;font-size:25px;font-style:normal;fill:#ffffff;stroke:none;">LAUF</text></svg>